<?xml version="1.0" standalone="no"?>
<!DOCTYPE svg PUBLIC "-//W3C//DTD SVG 20010904//EN"
 "http://www.w3.org/TR/2001/REC-SVG-20010904/DTD/svg10.dtd">
<svg version="1.0" xmlns="http://www.w3.org/2000/svg"
 width="512.000000pt" height="512.000000pt" viewBox="0 0 512.000000 512.000000"
 preserveAspectRatio="xMidYMid meet">
<metadata>
Created by potrace 1.14, written by Peter Selinger 2001-2017
</metadata>
<g transform="translate(0.000000,512.000000) scale(0.100000,-0.100000)"
fill="#000000" stroke="none">
<path d="M2360 4661 c-113 -65 -248 -143 -300 -173 -52 -30 -169 -98 -260
-150 -91 -52 -253 -146 -360 -208 -107 -62 -208 -120 -225 -130 -16 -9 -120
-69 -230 -132 -110 -64 -216 -125 -235 -135 -19 -11 -52 -30 -73 -43 l-37 -22
2 -1110 3 -1110 330 -190 c182 -105 404 -233 495 -285 91 -53 181 -105 200
-116 19 -10 76 -43 125 -72 86 -50 442 -256 515 -297 19 -11 81 -47 137 -79
56 -33 107 -59 113 -59 10 0 250 137 1165 665 88 51 293 169 455 263 l295 170
0 1112 0 1112 -379 219 c-209 120 -381 219 -383 219 -2 0 -20 11 -41 24 -20
12 -273 159 -562 326 -289 166 -530 306 -535 310 -6 5 -96 -40 -215 -109z
m622 -312 c210 -122 392 -227 403 -233 74 -40 888 -513 907 -527 l23 -18 0
-1011 0 -1011 -25 -19 c-13 -10 -136 -83 -273 -162 -137 -78 -276 -159 -310
-179 -34 -19 -152 -87 -262 -151 -110 -63 -272 -157 -360 -208 -503 -291 -506
-292 -534 -287 -15 3 -99 47 -187 98 -87 51 -174 100 -192 111 -18 10 -102 58
-185 107 -188 109 -799 462 -847 489 -204 115 -316 185 -327 204 -10 18 -12
232 -13 1016 l0 993 24 22 c13 12 94 63 181 112 207 119 167 96 680 392 248
143 466 269 484 279 18 10 41 24 50 29 9 6 67 39 129 75 62 36 130 75 150 88
25 15 47 21 69 18 17 -3 204 -105 415 -227z"/>
<path d="M2541 4396 c-21 -11 -368 -213 -399 -231 -9 -6 -39 -23 -67 -38 -27
-15 -57 -32 -65 -37 -30 -20 -363 -210 -368 -210 -3 0 -13 -6 -21 -14 -9 -7
-41 -27 -71 -43 -30 -17 -111 -63 -180 -102 -69 -40 -189 -110 -267 -154
l-143 -82 0 -925 0 -925 226 -130 c125 -71 245 -141 268 -154 22 -13 142 -82
266 -154 124 -71 241 -139 260 -150 19 -10 155 -89 301 -173 146 -85 272 -154
280 -154 8 0 40 16 72 35 32 19 60 35 63 35 2 0 21 11 42 23 36 23 200 118
537 312 88 51 216 125 285 165 69 39 232 133 362 209 l238 136 0 925 0 925
-96 55 c-53 30 -108 62 -122 70 -15 8 -47 27 -72 41 -25 15 -61 36 -80 47 -45
25 -811 468 -1047 604 -156 91 -184 104 -202 94z m230 -572 c101 -59 200 -115
219 -126 19 -11 71 -41 115 -67 44 -25 88 -50 97 -56 10 -5 115 -66 234 -135
119 -69 228 -132 243 -140 57 -33 72 -48 77 -81 4 -25 0 -41 -16 -62 -40 -51
-57 -44 -426 169 -186 108 -355 204 -374 215 -19 11 -42 24 -50 29 -27 18
-222 130 -225 130 -2 0 -26 14 -53 31 l-50 31 -238 -138 c-132 -75 -279 -160
-329 -189 -49 -29 -106 -62 -125 -73 -19 -11 -118 -67 -220 -126 -114 -65
-196 -106 -213 -106 -35 0 -77 40 -77 74 0 14 10 36 23 50 17 20 385 238 635
377 20 12 42 25 47 29 6 4 30 19 55 32 25 14 85 48 133 77 49 28 90 51 91 51
2 0 43 24 92 54 54 33 101 55 120 55 22 1 85 -30 215 -105z m-1064 -870 c14
-4 86 -92 195 -237 l173 -231 5 218 c5 203 6 219 25 232 47 34 108 24 125 -21
6 -15 10 -164 10 -356 0 -270 -3 -335 -15 -358 -22 -44 -76 -55 -112 -23 -11
9 -93 116 -184 236 l-164 219 -5 -217 c-5 -203 -6 -219 -25 -232 -47 -34 -108
-24 -125 21 -6 15 -10 164 -10 356 0 272 3 335 15 359 20 38 44 47 92 34z
m1208 -4 c48 -18 56 -89 15 -130 -18 -18 -34 -20 -195 -20 l-175 0 0 -80 0
-80 164 0 c91 0 176 -4 191 -10 48 -18 56 -89 15 -130 -18 -18 -34 -20 -195
-20 l-175 0 0 -122 c0 -68 -3 -133 -6 -145 -16 -60 -110 -68 -139 -12 -14 25
-15 80 -13 375 l3 345 25 19 c23 18 44 20 242 20 119 0 228 -4 243 -10z m725
-5 c55 -29 46 -123 -13 -139 -12 -3 -59 -6 -104 -6 l-83 0 0 -285 c0 -311 -4
-338 -55 -351 -35 -9 -78 9 -92 37 -9 17 -13 103 -13 312 l0 287 -87 0 c-99 0
-132 12 -146 53 -13 39 -1 74 31 91 40 22 520 23 562 1z m-2147 -972 c31 -16
364 -207 834 -480 l232 -134 238 137 c467 269 679 392 767 442 100 59 135 64
171 27 39 -38 27 -100 -24 -126 -14 -8 -53 -30 -86 -50 -33 -19 -139 -81 -235
-136 -575 -331 -709 -408 -744 -430 -84 -54 -61 -63 -581 237 -259 150 -486
281 -505 292 -180 103 -200 120 -200 166 0 31 43 72 75 72 14 0 40 -7 58 -17z"/>
</g>
</svg>
