<svg width="0" height="0" class="hidden">

  <!-- SOCIAL ICONS -->

  <!-- icon twitter -->
  <symbol version="1.1" id="icon_twitter" xmlns="http://www.w3.org/2000/svg" xmlns:xlink="http://www.w3.org/1999/xlink" x="0px" y="0px" xml:space="preserve" viewBox="0 0 310 310">
    <g id="XMLID_826_">
      <path id="XMLID_827_" d="M302.973,57.388c-4.87,2.16-9.877,3.983-14.993,5.463c6.057-6.85,10.675-14.91,13.494-23.73
		c0.632-1.977-0.023-4.141-1.648-5.434c-1.623-1.294-3.878-1.449-5.665-0.39c-10.865,6.444-22.587,11.075-34.878,13.783
		c-12.381-12.098-29.197-18.983-46.581-18.983c-36.695,0-66.549,29.853-66.549,66.547c0,2.89,0.183,5.764,0.545,8.598
		C101.163,99.244,58.83,76.863,29.76,41.204c-1.036-1.271-2.632-1.956-4.266-1.825c-1.635,0.128-3.104,1.05-3.93,2.467
		c-5.896,10.117-9.013,21.688-9.013,33.461c0,16.035,5.725,31.249,15.838,43.137c-3.075-1.065-6.059-2.396-8.907-3.977
		c-1.529-0.851-3.395-0.838-4.914,0.033c-1.52,0.871-2.473,2.473-2.513,4.224c-0.007,0.295-0.007,0.59-0.007,0.889
		c0,23.935,12.882,45.484,32.577,57.229c-1.692-0.169-3.383-0.414-5.063-0.735c-1.732-0.331-3.513,0.276-4.681,1.597
		c-1.17,1.32-1.557,3.16-1.018,4.84c7.29,22.76,26.059,39.501,48.749,44.605c-18.819,11.787-40.34,17.961-62.932,17.961
		c-4.714,0-9.455-0.277-14.095-0.826c-2.305-0.274-4.509,1.087-5.294,3.279c-0.785,2.193,0.047,4.638,2.008,5.895
		c29.023,18.609,62.582,28.445,97.047,28.445c67.754,0,110.139-31.95,133.764-58.753c29.46-33.421,46.356-77.658,46.356-121.367
		c0-1.826-0.028-3.67-0.084-5.508c11.623-8.757,21.63-19.355,29.773-31.536c1.237-1.85,1.103-4.295-0.33-5.998
		C307.394,57.037,305.009,56.486,302.973,57.388z"></path>
    </g>
  </symbol>

  <!-- icon discord -->
  <symbol id="icon_discord" xmlns="http://www.w3.org/2000/svg" viewBox="0 0 256 256">
    <path d="M247.29492,169.80862,213.32129,56.56252A15.953,15.953,0,0,0,204.084,46.35744l-.53759.16309.54931-.1919a185.84371,185.84371,0,0,0-34.53515-10.30712,8.00026,8.00026,0,1,0-3.12012,15.69336q6.72656,1.3374,13.18457,3.14746a7.97792,7.97792,0,0,1-4.46045,15.07714,188.85309,188.85309,0,0,0-93.26074-.18359,7.99484,7.99484,0,0,1-5.56592-14.87305l.03418.01172q6.4541-1.80762,13.20068-3.15185a8.00026,8.00026,0,0,0-3.12011-15.69336A185.88539,185.88539,0,0,0,51.917,46.35647a15.95771,15.95771,0,0,0-9.23828,10.20507L8.70508,169.80862a16.09028,16.09028,0,0,0,4.88672,16.72656c.95459.83008,1.9331,1.645,2.92529,2.45166.02344.019.04346.041.06689.06006,16.23047,13.166,37.50342,23.22461,61.51856,29.08691a7.99977,7.99977,0,0,0,3.79492-15.543,160.72734,160.72734,0,0,1-31.33789-11.0664l.06592.00488a7.99746,7.99746,0,0,1,8.59912-13.24219C78.21,186.74367,102.063,192,128,192s49.80664-5.26269,68.792-13.71924a7.997,7.997,0,0,1,8.58252,13.24854l.06592-.00488a160.72734,160.72734,0,0,1-31.33789,11.0664,7.99978,7.99978,0,1,0,3.79492,15.543c24.01514-5.8623,45.28809-15.9209,61.51856-29.08691.02441-.01953.04492-.042.06884-.062h.00049c.99121-.80615,1.96973-1.62109,2.92383-2.45068A16.09062,16.09062,0,0,0,247.29492,169.80862ZM96,156a12,12,0,1,1,12-12A12,12,0,0,1,96,156Zm64,0a12,12,0,1,1,12-12A12,12,0,0,1,160,156Z"></path>
  </symbol>
  
  <!-- icon youtube -->
  <symbol xmlns="http://www.w3.org/2000/svg" viewBox="0 0 24 24" id="icon_youtube">
    <g>
      <path fill="none" d="M0 0h24v24H0z"></path>
      <path d="M21.543 6.498C22 8.28 22 12 22 12s0 3.72-.457 5.502c-.254.985-.997 1.76-1.938 2.022C17.896 20 12 20 12 20s-5.893 0-7.605-.476c-.945-.266-1.687-1.04-1.938-2.022C2 15.72 2 12 2 12s0-3.72.457-5.502c.254-.985.997-1.76 1.938-2.022C6.107 4 12 4 12 4s5.896 0 7.605.476c.945.266 1.687 1.04 1.938 2.022zM10 15.5l6-3.5-6-3.5v7z"></path>
    </g>
  </symbol>

  <!-- icon telegram -->
  <symbol version="1.1" id="icon_telegram" xmlns="http://www.w3.org/2000/svg" xmlns:xlink="http://www.w3.org/1999/xlink" x="0px" y="0px" xml:space="preserve" viewBox="0 0 300 300">
    <g id="XMLID_496_">
      <path id="XMLID_497_" d="M5.299,144.645l69.126,25.8l26.756,86.047c1.712,5.511,8.451,7.548,12.924,3.891l38.532-31.412
		c4.039-3.291,9.792-3.455,14.013-0.391l69.498,50.457c4.785,3.478,11.564,0.856,12.764-4.926L299.823,29.22
		c1.31-6.316-4.896-11.585-10.91-9.259L5.218,129.402C-1.783,132.102-1.722,142.014,5.299,144.645z M96.869,156.711l135.098-83.207
		c2.428-1.491,4.926,1.792,2.841,3.726L123.313,180.87c-3.919,3.648-6.447,8.53-7.163,13.829l-3.798,28.146
		c-0.503,3.758-5.782,4.131-6.819,0.494l-14.607-51.325C89.253,166.16,91.691,159.907,96.869,156.711z"></path>
    </g>
  </symbol> 
  
</svg>